<svg viewBox="0 0 600 600" xmlns="http://www.w3.org/2000/svg">
  <rect width="600" height="600" fill="#15120F"/>
  <path d="M0 140 C150 100 250 180 400 140 S600 100 600 100 V230 C500 270 400 190 300 230 S100 270 0 230 Z" fill="#2E7DA6"/>
  <path d="M0 280 C150 240 250 320 400 280 S600 240 600 240 V370 C500 410 400 330 300 370 S100 410 0 370 Z" fill="#C9A227" opacity=".85"/>
  <path d="M0 420 C150 380 250 460 400 420 S600 380 600 380 V510 C500 550 400 470 300 510 S100 550 0 510 Z" fill="#B5542B" opacity=".9"/>
</svg>
