<svg viewBox="0 0 600 600" xmlns="http://www.w3.org/2000/svg">
  <rect width="600" height="600" fill="#ECE3CC"/>
  <g fill="#15120F">
    <rect x="40"  y="220" width="14" height="160"/>
    <rect x="70"  y="190" width="14" height="220"/>
    <rect x="100" y="240" width="14" height="120"/>
    <rect x="130" y="170" width="14" height="260"/>
    <rect x="160" y="230" width="14" height="140"/>
    <rect x="190" y="200" width="14" height="200"/>
    <rect x="220" y="250" width="14" height="100"/>
    <rect x="250" y="180" width="14" height="240"/>
    <rect x="280" y="225" width="14" height="150"/>
    <rect x="310" y="195" width="14" height="210"/>
    <rect x="340" y="245" width="14" height="110"/>
    <rect x="370" y="185" width="14" height="230"/>
    <rect x="400" y="225" width="14" height="150"/>
    <rect x="430" y="205" width="14" height="190"/>
    <rect x="460" y="240" width="14" height="120"/>
    <rect x="490" y="190" width="14" height="220"/>
    <rect x="520" y="230" width="14" height="140"/>
  </g>
</svg>
