<svg viewBox="0 0 600 600" xmlns="http://www.w3.org/2000/svg">
  <rect width="600" height="600" fill="#2E7DA6"/>
  <rect y="360" width="600" height="240" fill="#1F6FB2"/>
  <g>
    <rect x="0"   y="160" width="55" height="240" fill="#8F3F1E"/>
    <rect x="55"  y="220" width="50" height="180" fill="#ECE3CC"/>
    <rect x="105" y="120" width="60" height="280" fill="#8F3F1E"/>
    <rect x="165" y="260" width="45" height="140" fill="#ECE3CC"/>
    <rect x="210" y="90"  width="65" height="310" fill="#D9CBA3"/>
    <rect x="275" y="200" width="50" height="200" fill="#8F3F1E"/>
    <rect x="325" y="60"  width="70" height="340" fill="#ECE3CC"/>
    <rect x="395" y="230" width="50" height="170" fill="#8F3F1E"/>
    <rect x="445" y="140" width="60" height="260" fill="#D9CBA3"/>
    <rect x="505" y="250" width="48" height="150" fill="#8F3F1E"/>
    <rect x="553" y="180" width="47" height="220" fill="#ECE3CC"/>
  </g>
  <path d="M0,400 C100,370 180,430 300,400 C420,370 500,430 600,400 L600,440 C500,470 420,410 300,440 C180,470 100,410 0,440 Z" fill="#15120F" opacity=".18"/>
</svg>
